<svg xmlns="http://www.w3.org/2000/svg" width="28" height="30" viewBox="0 0 28 30">
  <defs>
    <style>
      .cls-1 {
        fill: #eb4f4e;
      }

      .cls-2 {
        fill: #fff;
        fill-rule: evenodd;
      }
    </style>
  </defs>
  <rect class="cls-1" y="0.906" width="28" height="29" rx="1.931" ry="1.931"/>
  <path id="face" class="cls-2" d="M8.99,12.107h1.744V10.995A4.668,4.668,0,0,1,11.313,8.3,3.2,3.2,0,0,1,14.1,6.994a12.746,12.746,0,0,1,3.328.323L17.4,9.98a16.146,16.146,0,0,0-1.977-.217,1.087,1.087,0,0,0-1.325.948v1.4h2.521l-0.12,2.52H14.076l-0.053,9.324H10.734V14.706H8.99v-2.6h0Z"/>
</svg>
