<svg xmlns="http://www.w3.org/2000/svg" width="28" height="30" viewBox="0 0 28 30">
  <defs>
    <style>
      .cls-1 {
        fill: #eb4f4e;
      }

      .cls-2 {
        fill: #fff;
        fill-rule: evenodd;
      }
    </style>
  </defs>
  <rect id="Shape_218_copy" data-name="Shape 218 copy" class="cls-1" y="0.906" width="28" height="29" rx="1.931" ry="1.931"/>
  <path id="Twitter" class="cls-2" d="M5.214,18.768a14.377,14.377,0,0,0,3.316.938,3.042,3.042,0,0,0,3.08-1.1,0.436,0.436,0,0,0-.106-0.65S7.51,16.711,7.793,16.021c0,0-.018-0.39.5-0.3,0,0,.578-0.5.295-0.681,0,0-.442-0.39-0.089-0.425a10.25,10.25,0,0,1,1.239.146s0.23-.083.018-0.242a1.2,1.2,0,0,1-.5-0.589s0.124-.3.69-0.053c0,0,.177-0.035.018-0.213,0,0-.478-0.283-0.248-0.513,0,0,.718-0.468,2.364,1.532,0,0,.3.408,0.336,0.018,0,0,1.193-5.13,3.122-5.466a1.036,1.036,0,0,0,.743-0.071A0.925,0.925,0,0,1,17,9.128a0.281,0.281,0,0,0,.389.106s0.761-.3.531,0.194a3.924,3.924,0,0,1-1.05.767c-0.265.017-.212,0.265,0.018,0.3,0,0,3.239.285,3.239,2.656,0,0,.186.563,0.788-0.021a6.589,6.589,0,0,1,1.141-.607s0.248-.159.212,0.213a4.328,4.328,0,0,1-1.327,1.452S20.53,14.7,21.114,14.6a3.563,3.563,0,0,0,.833-0.277s0.69-.336.372,0.266a8.9,8.9,0,0,1-1.772.943,0.277,0.277,0,0,0-.212.247s-0.195,6.238-8.3,6.238A8.59,8.59,0,0,1,5.32,19.228S4.807,18.679,5.214,18.768Z"/>
</svg>
