<svg xmlns="http://www.w3.org/2000/svg" width="48" height="36" viewBox="0 0 48 36">
  <defs>
    <style>
      .cls-1 {
        fill: #232324;
        fill-rule: evenodd;
      }
    </style>
  </defs>
  <path id="graph" class="cls-1" d="M5.969,34.969a1,1,0,0,1-1,1h-3a1,1,0,0,1-1-1V29.594a1,1,0,0,1,1-1h3a1,1,0,0,1,1,1v5.375Zm7,0a1,1,0,0,1-1,1h-3a1,1,0,0,1-1-1v-16a1,1,0,0,1,1-1h3a1,1,0,0,1,1,1v16Zm7,0a1,1,0,0,1-1,1h-3a1,1,0,0,1-1-1v-34a1,1,0,0,1,1-1h3a1,1,0,0,1,1,1v34Zm7,0a1,1,0,0,1-1,1h-3a1,1,0,0,1-1-1V7.344a1,1,0,0,1,1-1h3a1,1,0,0,1,1,1V34.969Zm7,0a1,1,0,0,1-1,1h-3a1,1,0,0,1-1-1V16.093a1,1,0,0,1,1-1h3a1,1,0,0,1,1,1V34.969Zm7,0a1,1,0,0,1-1,1h-3a1,1,0,0,1-1-1v-16.5a1,1,0,0,1,1-1h3a1,1,0,0,1,1,1v16.5Zm7,0a1,1,0,0,1-1,1h-3a1,1,0,0,1-1-1V13.594a1,1,0,0,1,1-1h3a1,1,0,0,1,1,1V34.969Z"/>
</svg>
