<svg xmlns="http://www.w3.org/2000/svg" viewBox="0 0 242.41 225.71">
  <defs>
    <style>
      .a {
        fill: none;
      }

      .b {
        fill: #3c5f85;
      }
    </style>
  </defs>
  <title>logo</title>
  <g>
    <g>
      <path class="a" d="M134.72,62.41a3.5,3.5,0,0,0,.94-2.67,1.19,1.19,0,0,1,.58-1.15,2.15,2.15,0,0,1,1-.31h4.6a1.82,1.82,0,0,1,1,.37,1.25,1.25,0,0,1,.52,1.1v58.13a2.53,2.53,0,0,1-.31,1.46,8,8,0,0,1-.73.84,8.26,8.26,0,0,0-1.67,1.78,4.84,4.84,0,0,0-.84,2.93v3H157.2v-3a5.09,5.09,0,0,0-.78-2.93,7.43,7.43,0,0,0-1.62-1.78,4.64,4.64,0,0,1-.84-0.84,2.52,2.52,0,0,1-.31-1.46V60a1.73,1.73,0,0,1,.47-1.36,1.61,1.61,0,0,1,1.1-.42h5.12a1.12,1.12,0,0,1,1.15,1.36,4,4,0,0,0,.84,2.67,2.84,2.84,0,0,0,2.3,1h5.65v-9a5.73,5.73,0,0,0-.94-3.71q-0.94-1.1-3.45-1.1H131.8a6.65,6.65,0,0,0-4,1,4,4,0,0,0-1.31,3.4V63.3h4.81A5.07,5.07,0,0,0,134.72,62.41Z"/>
      <path class="a" d="M128.64,40.64a2.9,2.9,0,0,0,.57.52,2.7,2.7,0,0,0,2.55.25,2.59,2.59,0,0,0,.66-0.4,2.9,2.9,0,0,0,.52-0.57,2.67,2.67,0,0,0,.46-1.5V34.11a2.68,2.68,0,0,0-.22-1,2.51,2.51,0,0,0-1-1.17,2.6,2.6,0,0,0-1.5-.46,2.69,2.69,0,0,0-1,.21,2.47,2.47,0,0,0-1.18,1,2.53,2.53,0,0,0-.34.7,2.66,2.66,0,0,0-.12.79V39a2.69,2.69,0,0,0,.21,1A2.65,2.65,0,0,0,128.64,40.64Zm0.76-6.53a1.66,1.66,0,0,1,0-.26,0.83,0.83,0,0,1,.08-0.24A1.23,1.23,0,0,1,130,33a1.39,1.39,0,0,1,.74-0.22,1.32,1.32,0,0,1,.51.11,1.24,1.24,0,0,1,.57.47,1.2,1.2,0,0,1,.22.72V38.9a1.35,1.35,0,0,1-.1.51,1.24,1.24,0,0,1-.47.57,1.26,1.26,0,0,1-.74.22,1.33,1.33,0,0,1-.51-0.1,1.31,1.31,0,0,1-.79-1.21V34.11h0Z"/>
      <path class="a" d="M144.53,40.64a2.9,2.9,0,0,0,.57.52,2.7,2.7,0,0,0,2.55.25,2.59,2.59,0,0,0,.66-0.4,2.9,2.9,0,0,0,.52-0.57,2.67,2.67,0,0,0,.46-1.5V34.11a2.68,2.68,0,0,0-.22-1,2.51,2.51,0,0,0-1-1.17,2.6,2.6,0,0,0-1.5-.46,2.69,2.69,0,0,0-1,.21,2.47,2.47,0,0,0-1.18,1,2.53,2.53,0,0,0-.34.7,2.66,2.66,0,0,0-.12.79V39a2.69,2.69,0,0,0,.21,1A2.65,2.65,0,0,0,144.53,40.64Zm0.76-6.53a1.66,1.66,0,0,1,0-.26,0.83,0.83,0,0,1,.08-0.24,1.23,1.23,0,0,1,.47-0.58,1.39,1.39,0,0,1,.74-0.22,1.32,1.32,0,0,1,.51.11,1.24,1.24,0,0,1,.57.47,1.2,1.2,0,0,1,.22.72v4.82a1.35,1.35,0,0,1-.1.51,1.24,1.24,0,0,1-.47.57,1.26,1.26,0,0,1-.74.22,1.33,1.33,0,0,1-.51-0.1,1.31,1.31,0,0,1-.79-1.21V34.11h0Z"/>
      <path class="a" d="M98,41.22a2.52,2.52,0,0,0,1.38.42,2.39,2.39,0,0,0,.95-0.19,2.33,2.33,0,0,0,1.08-.89,2.81,2.81,0,0,0,.31-0.65,2.32,2.32,0,0,0,.11-0.71,0.69,0.69,0,0,0-.68-0.68,0.67,0.67,0,0,0-.49.2,0.65,0.65,0,0,0-.2.48,1.1,1.1,0,0,1-.08.42,1,1,0,0,1-1.38.55,1.07,1.07,0,0,1-.47-0.39,1,1,0,0,1-.19-0.6V33.9a0.87,0.87,0,0,1,.1-0.42A0.94,0.94,0,0,1,98.82,33a1.12,1.12,0,0,1,.6-0.18,1,1,0,0,1,.42.08,1.07,1.07,0,0,1,.65,1,0.65,0.65,0,0,0,.2.48,0.67,0.67,0,0,0,.49.2,0.69,0.69,0,0,0,.68-0.68,2.51,2.51,0,0,0-.19-1,2.34,2.34,0,0,0-.89-1.07,2.37,2.37,0,0,0-1.36-.42,2.31,2.31,0,0,0-1,.19,2.36,2.36,0,0,0-1.07.88A2.39,2.39,0,0,0,97,33.9v5.28a2.41,2.41,0,0,0,.19,1A2.35,2.35,0,0,0,98,41.22Z"/>
      <path class="a" d="M112.91,41.62a0.66,0.66,0,0,0,.48-0.2,0.67,0.67,0,0,0,.2-0.49V37.45a0.24,0.24,0,0,1,.07-0.18,0.23,0.23,0,0,1,.17-0.07h2a0.23,0.23,0,0,1,.17.07,0.25,0.25,0,0,1,.07.18v3.48a0.67,0.67,0,0,0,.2.49,0.66,0.66,0,0,0,.48.2,0.69,0.69,0,0,0,.69-0.69h0v-8.8a0.66,0.66,0,0,0-.2-0.48,0.67,0.67,0,0,0-.49-0.2,0.69,0.69,0,0,0-.68.68v3.46a0.25,0.25,0,0,1-.07.18,0.23,0.23,0,0,1-.17.07h-2a0.23,0.23,0,0,1-.17-0.07,0.24,0.24,0,0,1-.07-0.18V32.12a0.69,0.69,0,0,0-.68-0.68,0.67,0.67,0,0,0-.49.2,0.65,0.65,0,0,0-.2.48v8.8a0.69,0.69,0,0,0,.68.7h0Z"/>
      <path class="a" d="M107.23,52.74a4.84,4.84,0,0,0,.84,2.93,8.26,8.26,0,0,0,1.67,1.78,8.16,8.16,0,0,1,.73.84,2.54,2.54,0,0,1,.31,1.46v41.4c0,0.21-.05.24-0.16,0.1a2.61,2.61,0,0,1-.26-0.42l-1.67-5.44q-1.26-4.08-2.87-9.46t-3.45-11.29q-1.83-5.91-3.4-10.87t-2.61-8.31q-1-3.35-1-3.55a3.51,3.51,0,0,0-.94-1.62,2.71,2.71,0,0,0-1.88-.58H80.67v3.45A6.71,6.71,0,0,0,81.19,56a5.12,5.12,0,0,0,1.25,1.73,5.2,5.2,0,0,0,1.78,1.15v59a2.53,2.53,0,0,1-.31,1.46,3.65,3.65,0,0,1-.73.73,8.31,8.31,0,0,0-1.67,1.78,4.84,4.84,0,0,0-.84,2.93v3.14H97v-3.14a5.09,5.09,0,0,0-.78-2.93,7.43,7.43,0,0,0-1.62-1.78,2.85,2.85,0,0,1-.84-0.73,2.77,2.77,0,0,1-.31-1.57V78.14c0-.42,0-0.59.1-0.52a1.26,1.26,0,0,1,.21.31q0,0.1,1,3.4t2.61,8.21l3.4,10.66L104.22,111,107,119.7q1.15,3.61,1.36,4.13a17.88,17.88,0,0,0,1.1,2.93,2,2,0,0,0,1.93,1.15h6.06a2.2,2.2,0,0,0,1.88-.84,3.05,3.05,0,0,0,.63-1.88V59.64a3.36,3.36,0,0,1,.37-1.36,4.79,4.79,0,0,1,.68-0.84,8.34,8.34,0,0,0,1.67-1.78,4.85,4.85,0,0,0,.84-2.93v-3H107.23v3h0Z"/>
      <path class="a" d="M160.51,41.63h2.66a0.65,0.65,0,0,0,.48-0.2,0.67,0.67,0,0,0,.2-0.49,0.69,0.69,0,0,0-.68-0.68h-1.72a0.24,0.24,0,0,1-.18-0.07A0.23,0.23,0,0,1,161.2,40V32.14a0.69,0.69,0,0,0-.68-0.68,0.68,0.68,0,0,0-.49.2,0.65,0.65,0,0,0-.21.48v8.8a0.66,0.66,0,0,0,.21.49A0.68,0.68,0,0,0,160.51,41.63Z"/>
      <path class="a" d="M121.15,8.77l-0.52.12-0.52-.12V9L43.56,26.83s2.64,115,76.56,154v0.58l0.52-.29,0.52,0.29v-0.58c73.91-39,76.56-154,76.56-154L121.15,9V8.77Zm72,21c-8.45,116.89-66.66,143.94-72.52,146.38-5.86-2.44-64.07-29.48-72.52-146.38l72.52-17Z"/>
      <path class="a" d="M82.65,36.06a5.24,5.24,0,0,0,.51.52l0.53,0.48a9.13,9.13,0,0,1,.7.64,5.74,5.74,0,0,1,.45.51,1.94,1.94,0,0,1,.28.5,1.08,1.08,0,0,1,.1.46,1.14,1.14,0,0,1-.08.43,1.19,1.19,0,0,1-.39.47,1,1,0,0,1-.6.18,1.16,1.16,0,0,1-.43-0.08,1.2,1.2,0,0,1-.47-0.39,1.12,1.12,0,0,1-.18-0.6,0.7,0.7,0,0,0-1.15-.54l-0.05.05a0.67,0.67,0,0,0-.2.49,2.48,2.48,0,0,0,.18,1,2.44,2.44,0,0,0,.89,1.07,2.38,2.38,0,0,0,1.38.43,2.46,2.46,0,0,0,.95-0.19,2.57,2.57,0,0,0,1.07-.89,2.36,2.36,0,0,0,.43-1.36,3.1,3.1,0,0,0-.51-1.6l-0.3-.4a5.06,5.06,0,0,0-.38-0.42Q85.2,36.56,85,36.36L84.58,36q-0.42-.36-0.69-0.63a3.75,3.75,0,0,1-.44-0.51,2,2,0,0,1-.29-0.51,1.08,1.08,0,0,1-.1-0.46A1,1,0,0,1,83.53,33a1.08,1.08,0,0,1,1-.11,1.05,1.05,0,0,1,.67,1,0.68,0.68,0,1,0,1.36,0,2.52,2.52,0,0,0-.18-1,2.59,2.59,0,0,0-.89-1.07,2.39,2.39,0,0,0-1.38-.42,2.28,2.28,0,0,0-.95.19,2.52,2.52,0,0,0-1.08.88,2.85,2.85,0,0,0-.31.65,2.36,2.36,0,0,0-.11.72,2.69,2.69,0,0,0,.19,1A3.83,3.83,0,0,0,82.65,36.06Z"/>
      <g>
        <path class="b" d="M115.9,143.17a1,1,0,0,0-.42-0.08,1.13,1.13,0,0,0-.6.18,0.94,0.94,0,0,0-.39.49,1,1,0,0,0-.08.42v5.28a1,1,0,0,0,.18.6,1.06,1.06,0,0,0,.47.39,1.08,1.08,0,0,0,1.41-.57,1.13,1.13,0,0,0,.1-0.42v-5.28a1,1,0,0,0-.19-0.61A1.08,1.08,0,0,0,115.9,143.17Z"/>
        <path class="b" d="M130.19,40.15a1.33,1.33,0,0,0,.51.1,1.26,1.26,0,0,0,.74-0.22,1.24,1.24,0,0,0,.47-0.57A1.35,1.35,0,0,0,132,39V34.11a1.2,1.2,0,0,0-.22-0.72,1.24,1.24,0,0,0-.57-0.47,1.32,1.32,0,0,0-.51-0.11A1.39,1.39,0,0,0,130,33a1.23,1.23,0,0,0-.47.58,0.83,0.83,0,0,0-.08.24,1.66,1.66,0,0,0,0,.26V38.9A1.31,1.31,0,0,0,130.19,40.15Z"/>
        <path class="b" d="M146.09,40.15a1.33,1.33,0,0,0,.51.1,1.26,1.26,0,0,0,.74-0.22,1.24,1.24,0,0,0,.47-0.57,1.35,1.35,0,0,0,.1-0.51V34.11a1.2,1.2,0,0,0-.22-0.72,1.24,1.24,0,0,0-.57-0.47,1.32,1.32,0,0,0-.51-0.11,1.39,1.39,0,0,0-.74.22,1.23,1.23,0,0,0-.47.58,0.83,0.83,0,0,0-.08.24,1.66,1.66,0,0,0,0,.26v4.82A1.31,1.31,0,0,0,146.09,40.15Z"/>
        <path class="b" d="M207,20.35L120.36,0,33.66,20.35s-4.9,128.93,86.7,169.85C212,149.28,207,20.35,207,20.35Zm-85.9,160.5v0.58l-0.52-.29-0.52.29v-0.58c-73.91-39-76.56-154-76.56-154L120.12,9V8.77l0.52,0.12,0.52-.12V9l76.56,17.83s-2.66,115-76.57,154H121.1Z"/>
        <path class="b" d="M48.11,29.75c8.45,116.89,66.66,143.94,72.52,146.38,5.86-2.44,64.07-29.48,72.52-146.38l-72.52-17Zm64.11,2.37a0.65,0.65,0,0,1,.2-0.48,0.67,0.67,0,0,1,.49-0.2,0.69,0.69,0,0,1,.68.68v3.46a0.24,0.24,0,0,0,.07.18,0.23,0.23,0,0,0,.17.07h2a0.23,0.23,0,0,0,.17-0.07,0.25,0.25,0,0,0,.07-0.18V32.12a0.69,0.69,0,0,1,.68-0.68,0.67,0.67,0,0,1,.49.2,0.66,0.66,0,0,1,.2.48v8.8a0.69,0.69,0,0,1-.68.7h0a0.66,0.66,0,0,1-.48-0.2,0.67,0.67,0,0,1-.2-0.49V37.45a0.25,0.25,0,0,0-.07-0.18,0.23,0.23,0,0,0-.17-0.07h-2a0.23,0.23,0,0,0-.17.07,0.24,0.24,0,0,0-.07.18v3.48a0.67,0.67,0,0,1-.2.49,0.66,0.66,0,0,1-.48.2,0.69,0.69,0,0,1-.69-0.69h0v-8.8h0ZM97,33.9a2.39,2.39,0,0,1,.42-1.38,2.36,2.36,0,0,1,1.07-.88,2.31,2.31,0,0,1,1-.19,2.37,2.37,0,0,1,1.36.42,2.34,2.34,0,0,1,.89,1.07,2.51,2.51,0,0,1,.19,1,0.69,0.69,0,0,1-.68.68,0.67,0.67,0,0,1-.49-0.2,0.65,0.65,0,0,1-.2-0.48,1.07,1.07,0,0,0-.65-1,1,1,0,0,0-.42-0.08,1.12,1.12,0,0,0-.6.18,0.94,0.94,0,0,0-.39.49,0.87,0.87,0,0,0-.1.42v5.28a1,1,0,0,0,.19.6,1.07,1.07,0,0,0,.47.39,1.08,1.08,0,0,0,1.41-.57,1.1,1.1,0,0,0,.08-0.42,0.65,0.65,0,0,1,.2-0.48,0.67,0.67,0,0,1,.49-0.2,0.69,0.69,0,0,1,.68.68,2.32,2.32,0,0,1-.11.71,2.81,2.81,0,0,1-.31.65,2.33,2.33,0,0,1-1.08.89,2.39,2.39,0,0,1-.95.19A2.52,2.52,0,0,1,98,41.22a2.35,2.35,0,0,1-.88-1.08,2.41,2.41,0,0,1-.12-1V33.9Zm-15.18-.72a2.85,2.85,0,0,1,.31-0.65,2.52,2.52,0,0,1,1.08-.88,2.28,2.28,0,0,1,.95-0.19,2.39,2.39,0,0,1,1.38.42A2.59,2.59,0,0,1,86.43,33a2.52,2.52,0,0,1,.18,1,0.68,0.68,0,1,1-1.36,0,1.05,1.05,0,0,0-.67-1,1.08,1.08,0,0,0-1,.11,1.09,1.09,0,0,0-.37,1.35,2,2,0,0,0,.29.51,3.75,3.75,0,0,0,.44.51l0.69,0.63L85,36.36q0.22,0.19.42,0.41a5.06,5.06,0,0,1,.38.42l0.3,0.4a3.1,3.1,0,0,1,.51,1.6,2.36,2.36,0,0,1-.43,1.36,2.57,2.57,0,0,1-1.07.89,2.46,2.46,0,0,1-.95.19,2.38,2.38,0,0,1-1.38-.43,2.44,2.44,0,0,1-.89-1.07,2.48,2.48,0,0,1-.18-1,0.7,0.7,0,0,1,1.15-.54l0.05,0.05a0.67,0.67,0,0,1,.2.49,1.12,1.12,0,0,0,.18.6,1.2,1.2,0,0,0,.47.39,1.16,1.16,0,0,0,.43.08,1,1,0,0,0,.6-0.18,1.19,1.19,0,0,0,.39-0.47,1.14,1.14,0,0,0,.08-0.43,1.08,1.08,0,0,0-.1-0.46,1.94,1.94,0,0,0-.28-0.5,5.74,5.74,0,0,0-.45-0.51,9.13,9.13,0,0,0-.7-0.64l-0.53-.48a5.24,5.24,0,0,1-.51-0.52,3.83,3.83,0,0,1-.78-1.18,2.69,2.69,0,0,1-.19-1,2.36,2.36,0,0,1,.07-0.7h0ZM104,150.41a0.23,0.23,0,0,0,.21.11H106a0.68,0.68,0,1,1,0,1.36h-3.31a0.64,0.64,0,0,1-.58-0.32,0.61,0.61,0,0,1-.1-0.33,0.79,0.79,0,0,1,.07-0.33l3.13-6.23a1.29,1.29,0,0,0,.11-0.5,1.09,1.09,0,0,0-.15-0.56,0.76,0.76,0,0,0-.18-0.24,1.21,1.21,0,0,0-.25-0.17,1,1,0,0,0-1,.05,0.91,0.91,0,0,0-.4.43,1,1,0,0,0-.12.49v0.15h0a0.72,0.72,0,0,1-.25.36,0.65,0.65,0,0,1-.4.14h0a0.67,0.67,0,0,1-.48-0.19,0.63,0.63,0,0,1-.2-0.47h0a2.44,2.44,0,0,1,1.18-2.1,2.47,2.47,0,0,1,2.38-.08,2.41,2.41,0,0,1,1,.92,2.53,2.53,0,0,1,.35,1.27,2.58,2.58,0,0,1-.26,1.11L104,150.16A0.22,0.22,0,0,0,104,150.41Zm13.89-1a2.46,2.46,0,0,1-1.49,2.25,2.49,2.49,0,0,1-1,.19,2.32,2.32,0,0,1-.71-0.11,2.79,2.79,0,0,1-.65-0.31,2.32,2.32,0,0,1-.89-1.08,2.39,2.39,0,0,1-.19-0.95v-5.28a2.39,2.39,0,0,1,.42-1.38,2.35,2.35,0,0,1,1.08-.88,1.66,1.66,0,0,1,.46-0.15,2.72,2.72,0,0,1,.49,0,2.42,2.42,0,0,1,1.38.42,2.36,2.36,0,0,1,.88,1.07,2.51,2.51,0,0,1,.19,1v5.28Zm21.47-.22a2.59,2.59,0,0,1-.46,1.5,2.63,2.63,0,0,1-3,1.09,2.52,2.52,0,0,1-.7-0.34,2.47,2.47,0,0,1-1-1.18,2.69,2.69,0,0,1-.21-1,0.68,0.68,0,0,1,1.36,0,1.39,1.39,0,0,0,.22.74,1.22,1.22,0,0,0,.58.47,0.8,0.8,0,0,0,.24.08h0.26a1.26,1.26,0,0,0,.74-0.22,1.22,1.22,0,0,0,.47-0.57,1.35,1.35,0,0,0,.1-0.51v-1.1a1.37,1.37,0,0,0-.21-0.74,1.26,1.26,0,0,0-.5-0.46,1,1,0,0,0-.43-0.1h-0.95a0.66,0.66,0,0,1-.35-0.1,0.7,0.7,0,0,1-.26-0.28,0.64,0.64,0,0,1-.06-0.36,0.71,0.71,0,0,1,.13-0.35l1.67-2.27a0.21,0.21,0,0,0,0-.25,0.23,0.23,0,0,0-.22-0.14h-2.15a0.68,0.68,0,0,1,0-1.36h4a0.67,0.67,0,0,1,.35.1,0.71,0.71,0,0,1,.26.28,0.64,0.64,0,0,1,.06.36,0.7,0.7,0,0,1-.13.35l-1.77,2.39a0.24,0.24,0,0,0,0,.22,0.21,0.21,0,0,0,.15.15h0.26a2.35,2.35,0,0,1,.79.58,2.49,2.49,0,0,1,.54.85,2.83,2.83,0,0,1,.18,1v1.1Zm20.41-117.1a0.65,0.65,0,0,1,.21-0.48,0.68,0.68,0,0,1,.49-0.2,0.69,0.69,0,0,1,.68.68V40a0.23,0.23,0,0,0,.07.17,0.24,0.24,0,0,0,.18.07h1.72a0.69,0.69,0,0,1,.68.68,0.67,0.67,0,0,1-.2.49,0.65,0.65,0,0,1-.48.2h-2.66a0.68,0.68,0,0,1-.49-0.2,0.66,0.66,0,0,1-.21-0.49V32.09Zm-15.9,2A2.66,2.66,0,0,1,144,33.3a2.53,2.53,0,0,1,.34-0.7,2.47,2.47,0,0,1,1.18-1,2.69,2.69,0,0,1,1-.21,2.6,2.6,0,0,1,1.5.46A2.51,2.51,0,0,1,149,33a2.68,2.68,0,0,1,.22,1v4.82a2.67,2.67,0,0,1-.46,1.5,2.9,2.9,0,0,1-.52.57,2.59,2.59,0,0,1-.66.4,2.7,2.7,0,0,1-2.55-.25,2.9,2.9,0,0,1-.57-0.52,2.65,2.65,0,0,1-.4-0.66,2.69,2.69,0,0,1-.21-1V34.09Zm-15.89,0a2.66,2.66,0,0,1,.12-0.79,2.53,2.53,0,0,1,.34-0.7,2.47,2.47,0,0,1,1.18-1,2.69,2.69,0,0,1,1-.21,2.6,2.6,0,0,1,1.5.46,2.51,2.51,0,0,1,1,1.17,2.68,2.68,0,0,1,.22,1v4.82a2.67,2.67,0,0,1-.46,1.5,2.9,2.9,0,0,1-.52.57,2.59,2.59,0,0,1-.66.4,2.7,2.7,0,0,1-2.55-.25,2.9,2.9,0,0,1-.57-0.52,2.65,2.65,0,0,1-.4-0.66,2.69,2.69,0,0,1-.21-1V34.09ZM126.42,56.9v-3a4,4,0,0,1,1.31-3.4,6.65,6.65,0,0,1,4-1h34.08q2.51,0,3.45,1.1a5.73,5.73,0,0,1,.94,3.71v9h-5.65a2.84,2.84,0,0,1-2.3-1,4,4,0,0,1-.84-2.67,1.12,1.12,0,0,0-1.15-1.36h-5.12a1.61,1.61,0,0,0-1.1.42,1.73,1.73,0,0,0-.47,1.36v57.82a2.52,2.52,0,0,0,.31,1.46,4.64,4.64,0,0,0,.84.84,7.43,7.43,0,0,1,1.62,1.78,5.09,5.09,0,0,1,.78,2.93v3H139.85v-3a4.84,4.84,0,0,1,.84-2.93,8.26,8.26,0,0,1,1.67-1.78,8,8,0,0,0,.73-0.84,2.53,2.53,0,0,0,.31-1.46V59.74a1.25,1.25,0,0,0-.52-1.1,1.82,1.82,0,0,0-1-.37h-4.6a2.15,2.15,0,0,0-1,.31,1.19,1.19,0,0,0-.58,1.15,3.5,3.5,0,0,1-.94,2.67,5.07,5.07,0,0,1-3.45.89H126.5V56.92Zm-2.23,86.92,1.63-1.88a0.68,0.68,0,0,1,.53-0.24,0.67,0.67,0,0,1,.44.17,0.92,0.92,0,0,1,.18.26,0.56,0.56,0,0,1,.06.3v7.84a0.24,0.24,0,0,0,.24.24h0.36a0.66,0.66,0,0,1,.48.2,0.67,0.67,0,0,1,.2.49,0.69,0.69,0,0,1-.68.68H125.1a0.69,0.69,0,0,1-.68-0.68,0.67,0.67,0,0,1,.2-0.49,0.66,0.66,0,0,1,.48-0.2h0.36a0.24,0.24,0,0,0,.24-0.24h0v-5.4a0.2,0.2,0,0,0-.15-0.22,0.23,0.23,0,0,0-.28.06,0.68,0.68,0,0,1-1,.11l0,0a0.67,0.67,0,0,1,0-.94Zm-40-84.93a5.2,5.2,0,0,1-1.78-1.15A5.12,5.12,0,0,1,81.19,56a6.71,6.71,0,0,1-.52-2.87V49.7H92.48a2.71,2.71,0,0,1,1.88.58,3.51,3.51,0,0,1,.94,1.62q0,0.21,1,3.55T99,63.77q1.57,5,3.4,10.87t3.45,11.29q1.62,5.38,2.87,9.46l1.67,5.44a2.61,2.61,0,0,0,.26.42c0.1,0.14.16,0.1,0.16-.1V59.74a2.54,2.54,0,0,0-.31-1.46,8.16,8.16,0,0,0-.73-0.84,8.26,8.26,0,0,1-1.67-1.78,4.84,4.84,0,0,1-.84-2.93v-3h16.31v3a4.85,4.85,0,0,1-.84,2.93A8.34,8.34,0,0,1,121,57.44a4.79,4.79,0,0,0-.68.84,3.36,3.36,0,0,0-.37,1.36v65.55a3.05,3.05,0,0,1-.63,1.88,2.2,2.2,0,0,1-1.88.84h-6.06a2,2,0,0,1-1.93-1.15,17.88,17.88,0,0,1-1.1-2.93q-0.21-.52-1.36-4.13l-2.74-8.7-3.45-10.82L97.4,89.54q-1.57-4.91-2.61-8.21t-1-3.4a1.26,1.26,0,0,0-.21-0.31c-0.07-.07-0.1.1-0.1,0.52v39.62a2.77,2.77,0,0,0,.31,1.57,2.85,2.85,0,0,0,.84.73,7.43,7.43,0,0,1,1.62,1.78,5.09,5.09,0,0,1,.78,2.93v3.14H80.67v-3.14a4.84,4.84,0,0,1,.84-2.93,8.31,8.31,0,0,1,1.67-1.78,3.65,3.65,0,0,0,.73-0.73,2.53,2.53,0,0,0,.31-1.46"/>
      </g>
    </g>
    <g>
      <path class="b" d="M16.18,110.81C31.5,105.84,14,81.73,14,81.73,1.54,109.51,16.18,110.81,16.18,110.81Z"/>
      <path class="b" d="M23.2,127.2c16,0.8,7.16-28.2,7.16-28.2C9.83,120.72,23.2,127.2,23.2,127.2Z"/>
      <path class="b" d="M29.74,147.64c16,0.82,7.16-28.15,7.16-28.15C16.37,141.15,29.74,147.64,29.74,147.64Z"/>
      <path class="b" d="M38.36,166.46c16-.26,5.47-28.58,5.47-28.58C24.63,160.89,38.36,166.46,38.36,166.46Z"/>
      <path class="b" d="M50.47,182.72c15.85-2.43,2-29.09,2-29.09C36.19,179,50.47,182.72,50.47,182.72Z"/>
      <path class="b" d="M66.92,194.06c15.41-4.66-1.63-29.12-1.63-29.12C52.31,192.46,66.92,194.06,66.92,194.06Z"/>
      <path class="b" d="M84.06,205.11c14.85-6.41-4.57-28.76-4.57-28.76C69.37,205.19,84.06,205.11,84.06,205.11Z"/>
      <path class="b" d="M93.6,182.63c-2.29,30.7,11.81,26.31,11.81,26.31C118,198.43,93.6,182.63,93.6,182.63Z"/>
      <path class="b" d="M15.22,130S26,119.31,0,105.78C0,105.78.31,136.25,15.22,130Z"/>
      <path class="b" d="M22.86,151.28s8.78-12.56-19-21C3.87,130.29,9.22,160.22,22.86,151.28Z"/>
      <path class="b" d="M34.94,170.07s5.56-14.5-23.31-15.26C11.62,154.81,23.82,182.36,34.94,170.07Z"/>
      <path class="b" d="M47.78,187.77S50.91,172.46,22.35,177C22.35,177,38.82,201.93,47.78,187.77Z"/>
      <path class="b" d="M66.68,202.62s0.06-15.67-27-4.83C39.7,197.78,60.69,218.46,66.68,202.62Z"/>
      <path class="b" d="M84.67,212.05s-3.3-15.26-27.3,1.88C57.37,213.93,82.24,228.93,84.67,212.05Z"/>
      <path class="b" d="M82,224.5s27.93,6.45,25.55-10.44C107.56,214.06,100.16,200.53,82,224.5Z"/>
      <path class="b" d="M226.24,110.81s14.64-1.31,2.15-29.08C228.39,81.73,210.91,105.84,226.24,110.81Z"/>
      <path class="b" d="M219.22,127.2s13.37-6.49-7.16-28.15C212.05,99,203.22,128,219.22,127.2Z"/>
      <path class="b" d="M212.68,147.64s13.37-6.49-7.16-28.15C205.52,119.48,196.68,148.46,212.68,147.64Z"/>
      <path class="b" d="M204.05,166.46s13.73-5.57-5.47-28.58C198.58,137.88,188,166.2,204.05,166.46Z"/>
      <path class="b" d="M191.94,182.72s14.28-3.67-2-29.09C189.91,153.63,176.09,180.29,191.94,182.72Z"/>
      <path class="b" d="M175.49,194.06s14.61-1.61,1.63-29.12C177.12,164.94,160.08,189.4,175.49,194.06Z"/>
      <path class="b" d="M158.35,205.11s14.69,0.09,4.57-28.76C162.92,176.35,143.5,198.7,158.35,205.11Z"/>
      <path class="b" d="M137,208.94s14.1,4.39,11.81-26.31C148.81,182.63,124.38,198.43,137,208.94Z"/>
      <path class="b" d="M227.19,130c14.91,6.23,15.22-24.23,15.22-24.23C216.47,119.31,227.19,130,227.19,130Z"/>
      <path class="b" d="M219.55,151.28c13.65,8.94,19-21,19-21C210.77,138.72,219.55,151.28,219.55,151.28Z"/>
      <path class="b" d="M207.48,170.07c11.12,12.3,23.31-15.26,23.31-15.26C201.92,155.56,207.48,170.07,207.48,170.07Z"/>
      <path class="b" d="M194.64,187.77c9,14.16,25.43-10.74,25.43-10.74C191.51,172.46,194.64,187.77,194.64,187.77Z"/>
      <path class="b" d="M175.74,202.62c6,15.84,27-4.83,27-4.83C175.67,187,175.74,202.62,175.74,202.62Z"/>
      <path class="b" d="M157.75,212.05c2.43,16.88,27.3,1.88,27.3,1.88C161.05,196.79,157.75,212.05,157.75,212.05Z"/>
      <path class="b" d="M134.85,214.06c-2.38,16.89,25.55,10.44,25.55,10.44C142.26,200.53,134.85,214.06,134.85,214.06Z"/>
    </g>
  </g>
</svg>