<svg xmlns="http://www.w3.org/2000/svg" width="32" height="26" viewBox="0 0 32 26">
  <defs>
    <style>
      .cls-1 {
        fill: #fff;
        fill-rule: evenodd;
      }
    </style>
  </defs>
  <path id="twitter-icon" class="cls-1" d="M32,3.075a13.147,13.147,0,0,1-3.771,1.035A6.591,6.591,0,0,0,31.115.477a13.2,13.2,0,0,1-4.168,1.594A6.572,6.572,0,0,0,15.76,8.06,18.651,18.651,0,0,1,2.228,1.2,6.57,6.57,0,0,0,4.26,9.964a6.518,6.518,0,0,1-2.974-.822c0,0.027,0,.055,0,0.084a6.569,6.569,0,0,0,5.267,6.437,6.571,6.571,0,0,1-1.73.228,6.426,6.426,0,0,1-1.235-.117A6.566,6.566,0,0,0,9.72,20.333a13.172,13.172,0,0,1-8.153,2.812A12.984,12.984,0,0,1,0,23.052,18.578,18.578,0,0,0,10.063,26C22.14,26,28.742,16,28.742,7.323c0-.283-0.006-0.568-0.018-0.85A13.342,13.342,0,0,0,32,3.075Z"/>
</svg>
